<?xml version="1.0" encoding="UTF-8"?>
<svg width="33px" height="25px" viewBox="0 0 33 25" version="1.1" xmlns="http://www.w3.org/2000/svg" xmlns:xlink="http://www.w3.org/1999/xlink">
    <title>behance-icon-2</title>
    <g id="Introduction" stroke="none" stroke-width="1" fill="none" fill-rule="evenodd">
        <g id="Design" transform="translate(-1138.000000, -9280.000000)" fill="#FFFFFF">
            <g id="Slide-5-Copy" transform="translate(0.000000, 8697.000000)">
                <g id="behance-icon-2" transform="translate(1138.000000, 583.582000)">
                    <path d="M26.0035066,6.16812241 C32.2220183,6.16812241 32.9796635,11.9623299 32.9995841,14.6245333 L32.9991603,14.8928118 C32.9923091,15.5326603 32.9458457,15.9339212 32.9458457,15.9339212 L32.9458457,15.9339212 L22.610498,15.9339212 C22.610498,19.5798249 25.2816778,19.8437088 25.9636811,19.8516662 L26.0487456,19.8513666 C26.0952673,19.8504327 26.120692,19.8485143 26.120692,19.8485143 C29.4357634,19.8485143 29.3188017,17.4294829 29.3188017,17.4294829 L29.3188017,17.4294829 L32.8288839,17.4294829 C32.8288839,23.8518978 26.0037303,23.4121083 26.0037303,23.4121083 C18.8518945,23.4121083 18.3467588,16.8540706 18.3336136,15.1914695 L18.3336708,15.0462395 C18.3350473,14.8955308 18.3401644,14.8119346 18.3401644,14.8119346 L18.3401644,14.8119346 L18.3408131,14.7614965 C18.3549443,14.0551918 18.6767739,6.16812241 26.0035066,6.16812241 Z M11.3811829,0.418 C14.8398873,0.418 17.5703854,2.2590571 17.5703854,6.03170542 C17.5703854,9.80423554 14.2330691,10.0432172 14.2330691,10.0432172 C18.6322253,10.0432172 18.3288775,15.2781213 18.3288775,15.2781213 C18.3288775,21.1846976 12.4734703,21.490941 11.5135674,21.5014608 L11.3867231,21.5011218 L11.3867231,21.5011218 L11.3811829,21.5009818 L0,21.5009818 L0,0.418 Z M11.4029095,12.1199698 L5.01480267,12.1196991 L5.01480267,17.7539809 L11.0877668,17.7539809 C12.0003851,17.7295154 13.686945,17.4533036 13.686945,15.0149105 C13.686945,12.2576253 11.6371695,12.1260083 11.4029095,12.1199698 Z M26.0815557,9.46320137 C23.0004077,9.46320137 22.5714734,12.9311944 22.5714734,12.9311944 L22.5714734,12.9311944 L29.1235795,12.9311944 L29.1235795,12.9311944 L29.123444,12.9033857 C29.1190544,12.5757491 29.0005379,9.46320137 26.0815557,9.46320137 Z M11.4022454,4.16572039 L5.01480267,4.16500092 L5.01480267,8.86981958 L10.9867326,8.86981958 C12.0181642,8.86981958 12.9284529,8.55176831 12.9284529,6.35838461 C12.9284529,4.31626876 11.5872402,4.17543319 11.4022454,4.16572039 Z M33,2.33470747 L33,4.25141494 L20.1666667,4.25141494 L20.1666667,2.33470747 L33,2.33470747 Z" id="Combined-Shape"></path>
                </g>
            </g>
        </g>
    </g>
</svg>