<?xml version="1.0" encoding="UTF-8"?>
<svg width="27px" height="27px" viewBox="0 0 27 27" version="1.1" xmlns="http://www.w3.org/2000/svg" xmlns:xlink="http://www.w3.org/1999/xlink">
    <title>behance-icon</title>
    <defs>
        <linearGradient x1="0.696395131%" y1="0%" x2="98.5156033%" y2="98.5051935%" id="linearGradient-1">
            <stop stop-color="#D25B73" offset="0%"></stop>
            <stop stop-color="#FF9900" offset="100%"></stop>
        </linearGradient>
        <circle id="path-2" cx="12.719" cy="12.918" r="12.5"></circle>
    </defs>
    <g id="Page-1" stroke="none" stroke-width="1" fill="none" fill-rule="evenodd">
        <g id="LandingPC-Med-1600" transform="translate(-267.000000, -674.000000)">
            <g id="Slide-1" transform="translate(159.000000, 0.000000)">
                <g id="behance-icon" transform="translate(108.781000, 674.582000)">
                    <mask id="mask-3" fill="white">
                        <use xlink:href="#path-2"></use>
                    </mask>
                    <use id="background-copy" fill="url(#linearGradient-1)" xlink:href="#path-2"></use>
                    <path d="M17.8797645,11.418 C21.7328615,11.418 21.1931536,15.9469697 21.1931536,15.9469697 L21.1931536,15.9469697 L16.260374,15.9469697 C16.260374,17.6083308 17.4912213,17.7554258 17.8428919,17.7635476 L17.9112723,17.7634787 C17.9271464,17.7630212 17.9356939,17.7623945 17.9356939,17.7623945 C19.3913116,17.7623945 19.4605128,16.8128643 19.462269,16.6609394 L19.4620644,16.6405488 L21.137331,16.6405488 C21.137331,19.2270956 18.680701,19.4136162 18.0342195,19.4179197 L17.9375737,19.4171879 C17.900174,19.4163118 17.8798713,19.4150406 17.8798713,19.4150406 C14.4808571,19.4150406 14.2274926,16.3992361 14.2192257,15.6125045 L14.2194613,15.5118684 C14.2203604,15.4567972 14.2222603,15.4266391 14.2222603,15.4266391 L14.2222603,15.4266391 L14.2225845,15.4025451 C14.2295342,15.0704997 14.3853984,11.418 17.8797645,11.418 Z M9.80612614,8.418 C11.5040356,8.418 12.8444619,9.29121008 12.8444619,11.0805704 C12.8444619,12.8698747 11.206143,12.9832232 11.206143,12.9832232 C13.0174085,12.9832232 13.2047954,14.7297833 13.2181235,15.2931897 L13.2180122,15.4364583 C13.2174324,15.4557942 13.2168126,15.4661288 13.2168126,15.4661288 C13.2168126,18.1965172 10.4863739,18.4037758 9.91154464,18.4171556 L4.219,18.4176204 L4.219,8.418 Z M9.83031444,13.9687111 L6.68081222,13.9680948 L6.68081222,16.6404246 L9.66208553,16.6404246 C10.1100982,16.6288206 10.9380457,16.4978139 10.9380457,15.3412884 C10.9380457,14.0748656 9.99442278,13.9762804 9.83031444,13.9687111 Z M17.9170152,12.94612 C16.4464673,12.94612 16.2417487,14.5544304 16.2417487,14.5544304 L16.2417487,14.5544304 L19.3688902,14.5544304 L19.3688902,14.5544304 L19.3684066,14.5227854 C19.3616606,14.2975475 19.2650174,12.94612 17.9170152,12.94612 Z M9.8128987,10.1953742 L6.68081222,10.1951958 L6.68081222,12.4266828 L9.61248693,12.4266828 C10.1188261,12.4266828 10.565695,12.2758317 10.565695,11.2355137 C10.565695,10.1951958 9.80612614,10.1951958 9.80612614,10.1951958 Z M21.219,9.418 L21.219,10.418 L14.219,10.418 L14.219,9.418 L21.219,9.418 Z" id="Combined-Shape" fill="#FFFFFF" mask="url(#mask-3)"></path>
                </g>
            </g>
        </g>
    </g>
</svg>