<?xml version="1.0" encoding="UTF-8"?>
<svg width="28px" height="25px" viewBox="0 0 28 25" version="1.1" xmlns="http://www.w3.org/2000/svg" xmlns:xlink="http://www.w3.org/1999/xlink">
    <title>linkedin-icon-2</title>
    <g id="Introduction" stroke="none" stroke-width="1" fill="none" fill-rule="evenodd">
        <g id="Design" transform="translate(-1137.000000, -9230.000000)" fill="#FFFFFF">
            <g id="Slide-5-Copy" transform="translate(0.000000, 8697.000000)">
                <g id="linkedin-icon-2" transform="translate(1137.219000, 533.000000)">
                    <path d="M20.1129146,8.33333333 C25.7414695,8.33333333 26.781,11.700814 26.781,16.0805207 L26.781,25 L21.222865,25 L21.2221534,16.7894234 L21.2221534,16.7894234 L21.2183984,16.4812489 C21.183907,14.721762 20.8857676,12.7801152 18.3339761,12.7801152 C15.4417339,12.7801152 15.0007717,14.8350559 15.0007717,16.9570719 L15.0007717,25 L9.44766667,25 L9.44766667,8.73730906 L14.776099,8.73730906 L14.776099,10.9614622 L14.8532254,10.9614622 C15.5943101,9.68245983 17.4084586,8.33333333 20.1129146,8.33333333 Z M5.981,8.33333333 L5.981,25 L0.781,25 L0.781,8.33333333 L5.981,8.33333333 Z M3.38302861,0 C4.81657867,0 5.981,1.12064483 5.981,2.5 C5.981,3.87935517 4.81657867,5 3.38302861,5 C1.94271651,5 0.781,3.87935517 0.781,2.5 C0.781,1.12064483 1.94271651,0 3.38302861,0 Z" id="LinkedInicon"></path>
                </g>
            </g>
        </g>
    </g>
</svg>